<?xml version="1.0" encoding="utf-8"?>
<!-- Generator: Adobe Illustrator 25.3.1, SVG Export Plug-In . SVG Version: 6.00 Build 0)  -->
<svg version="1.1" id="Camada_1" xmlns="http://www.w3.org/2000/svg" xmlns:xlink="http://www.w3.org/1999/xlink" x="0px" y="0px"
	 viewBox="0 0 1545 1052" style="enable-background:new 0 0 1545 1052;" xml:space="preserve">
<style type="text/css">
	.st0{fill:#F88379;}
	.st1{fill:#FFFFFF;}
	.st2{fill:#55CED7;}
	.st3{fill:#1A3142;}
	.st4{fill:#2F2F41;}
</style>
<rect x="224.1" y="117.9" class="st0" width="570.8" height="570.8"/>
<path class="st1" d="M654.6,460.2c-38.1,0-57.2-17.4-75.7-34.3c-18-16.4-35-31.9-69.4-31.9c-34.5,0-51.5,15.5-69.4,31.9
	c-18.5,16.9-37.6,34.3-75.7,34.3c-38.1,0-57.2-17.4-75.7-34.3c-18-16.4-35-31.9-69.4-31.9c-2.6,0-4.7-2.1-4.7-4.6
	c0-2.6,2.1-4.6,4.7-4.6c38.1,0,57.2,17.4,75.7,34.3c18,16.4,34.9,31.9,69.4,31.9c34.5,0,51.5-15.5,69.4-31.9
	c18.5-16.9,37.6-34.3,75.7-34.3c38.1,0,57.2,17.4,75.7,34.3c18,16.4,34.9,31.9,69.4,31.9c34.5,0,51.5-15.5,69.4-31.9
	c18.5-16.9,37.6-34.3,75.7-34.3c2.6,0,4.7,2.1,4.7,4.6c0,2.6-2.1,4.6-4.7,4.6c-34.5,0-51.5,15.5-69.4,31.9
	C711.8,442.8,692.7,460.2,654.6,460.2z"/>
<path class="st2" d="M541.6,389.4c0,17.8-14.4,32.2-32.2,32.2s-32.2-14.4-32.2-32.2c0-17.8,14.4-32.2,32.2-32.2
	S541.6,371.7,541.6,389.4z"/>
<path class="st1" d="M393.4,455.6c0,17.8-14.4,32.2-32.2,32.2c-17.8,0-32.2-14.4-32.2-32.2c0-17.8,14.4-32.2,32.2-32.2
	C379,423.4,393.4,437.8,393.4,455.6z"/>
<circle class="st1" cx="657.7" cy="455.6" r="32.2"/>
<path class="st1" d="M1237.1,1001.7h-371l7.7-124.6c0,0-23.6-100-23.6-102.8c-78.6,64.3-127.5,88.8-177.9,74.8
	c-26.9-7.4-47-27.5-159.9-245.2l112.7-55.5l85.8,124.1c130.2-131.9,150.1-124.3,242-134.5c3-0.3,69.1-8.6,115.5-4.9
	c42.8,3.4,75.9,27.7,103.6,48.5c53.1,39.9,129.4,121.5,168.7,231.2c14.9,41.6-76.3,97.6-124.5,125.9L1237.1,1001.7z"/>
<g>
	<g>
		<path class="st1" d="M611.1,552.7c0,0-15.3-44.6-29.7-74.2c-34.5-70.8-45.7-86.3-63.2-74.9c-12.3,8-0.1,24.6,12.5,43
			c10.1,14.9,11.9,30.7,11.9,30.7s-17.1-6.7-28.9,3.6c-14.7,12.9-45.1,36.7-37.7,55.1c7.4,18.4,25.5,23.3,25.5,23.3
			s2,24.6,26.9,38.8L611.1,552.7z"/>
		<path class="st3" d="M553.6,488.7c-1,0-1.9-0.3-2.8-0.9c-8.8-6.5-21.5-8-21.6-8c-2.5-0.3-4.4-2.6-4.1-5.1c0.3-2.5,2.6-4.4,5.1-4.1
			c0.6,0.1,15.3,1.8,26.2,9.8c2.1,1.5,2.5,4.4,1,6.5C556.4,488.1,555,488.7,553.6,488.7z"/>
		<path class="st3" d="M541,508c-1,0-2-0.3-2.8-1c-0.2-0.1-18-13.7-34.3-11.6c-2.5,0.3-4.9-1.5-5.2-4c-0.3-2.5,1.5-4.9,4-5.2
			c20.3-2.6,40.4,12.8,41.2,13.5c2,1.6,2.4,4.5,0.8,6.5C543.7,507.4,542.4,508,541,508z"/>
		<path class="st3" d="M522.5,530.4c-0.9,0-1.8-0.3-2.6-0.8c-0.2-0.1-20.9-13.6-37.3-11.5c-2.5,0.3-4.9-1.5-5.2-4
			c-0.3-2.5,1.5-4.9,4-5.2c20.1-2.6,42.7,12.3,43.6,13c2.1,1.4,2.7,4.3,1.3,6.4C525.5,529.7,524,530.4,522.5,530.4z"/>
		<path class="st3" d="M501.4,564c-0.3,0-0.7,0-1-0.1c-2.5-0.5-4.1-3-3.6-5.5c1.2-5.5-1.8-13.5-3.1-16.1c-1.1-2.3-0.2-5.1,2.2-6.2
			c2.3-1.1,5.1-0.2,6.2,2.1c0.6,1.3,5.9,12.5,3.8,22.1C505.5,562.5,503.6,564,501.4,564z"/>
	</g>
	<g>
		<path class="st3" d="M527.3,601.3c-0.8,0-1.6-0.2-2.3-0.6c-21.5-12.2-26.6-30.5-27.8-37.9c-6-2.4-19.2-9.2-25.5-25
			c-8-20,17.9-42.2,35-56.8l4-3.5c8.4-7.4,18.9-7.5,25.9-6.4c-1.5-5.6-4.3-13.9-9.7-21.8l-1.7-2.6c-9.9-14.4-18.4-26.9-16.3-37.2
			c0.8-4,3.1-7.3,6.9-9.8c5.9-3.8,11.4-5,16.7-3.5c13.9,3.8,26,24.4,53.3,80.3c14.4,29.5,29.7,74.2,29.9,74.7
			c0.8,2.4-0.5,5.1-2.9,5.9c-2.5,0.8-5.1-0.5-5.9-2.9c-0.2-0.4-15.3-44.7-29.5-73.6c-23.3-47.7-37-72.5-47.4-75.4
			c-1.8-0.5-4.4-0.7-9.1,2.4c-2.1,1.4-2.6,2.8-2.8,3.8c-1.3,6.5,6.9,18.5,14.9,30.1l1.7,2.6c10.7,15.7,12.6,32.1,12.7,32.8
			c0.2,1.6-0.5,3.2-1.8,4.2c-1.3,1-3,1.2-4.5,0.7c-0.2-0.1-14.7-5.5-24.2,2.8l-4.1,3.5c-13.2,11.4-37.9,32.6-32.4,46.3
			c6.4,15.9,21.8,20.4,22.4,20.6c1.9,0.5,3.3,2.3,3.4,4.3c0,0.8,1.3,20.9,23.5,33.5c2.2,1.3,3,4.1,1.7,6.3
			C530.5,600.5,528.9,601.3,527.3,601.3z"/>
	</g>
</g>
<path class="st4" d="M866.1,1006.4c-2.8-0.2-4.8-2.4-4.6-4.9l7.7-123.9c-8.5-35.9-18.2-77.2-22-94.7
	c-69.9,56.5-121.7,85.9-176.1,70.9c-29.1-8.1-50.7-31.5-162.8-247.5c-0.6-1.1-0.7-2.4-0.3-3.6c0.4-1.2,1.2-2.2,2.4-2.7L623,544.3
	c2.1-1,4.6-0.4,5.9,1.5l82.7,119.5c118.2-119.3,144.6-122,221.4-129.8c6.1-0.6,12.6-1.3,19.4-2c1.5-0.2,155.5-10.4,186.1,11.1
	c63.5,44.7,170.9,152.6,206.6,266.9c13.5,43.2-65.8,95.6-126.6,131.3c-2.2,1.3-5.1,0.6-6.4-1.7c-1.3-2.2-0.6-5.1,1.7-6.4
	c33.5-19.6,135.3-79.4,122.4-120.5c-35-112.1-140.6-218.2-203.1-262.1c-25.6-18-167.4-10.7-179.8-9.5c-6.9,0.8-13.3,1.4-19.5,2
	c-75.1,7.7-100.4,10.2-219.7,131.1c-1,1-2.3,1.5-3.7,1.4c-1.4-0.1-2.6-0.8-3.4-2l-83.6-120.8l-104.8,51.6
	C626.7,814,648,837.6,673.5,844.7c45.9,12.7,91.4-6.6,173.7-73.9c1.4-1.1,3.3-1.4,4.9-0.6c1.6,0.8,2.7,2.4,2.7,4.2
	c0.5,3.6,14.3,62.8,23.5,101.7c0.1,0.4,0.1,0.9,0.1,1.4l-7.7,124.6C870.6,1004.5,868.5,1006.4,866.1,1006.4z"/>
<path class="st3" d="M1237,1006.4c-1.9,0-3.7-1.2-4.4-3.1c-1.9-5.3-45.5-130.3-55.7-176.9c-10.3-46.9-0.5-134.5-0.1-138.2
	c0.3-2.6,2.7-4.4,5.1-4.1c2.6,0.3,4.4,2.6,4.1,5.1c-0.1,0.9-10.1,89.7-0.1,135.1c10.1,46,54.9,174.5,55.4,175.8
	c0.9,2.4-0.4,5.1-2.8,5.9C1238.1,1006.3,1237.6,1006.4,1237,1006.4z"/>
<path class="st3" d="M837.5,788.8c-1.4,0-2.8-0.6-3.7-1.8c-1.6-2-1.2-5,0.8-6.5l75.8-58.6c2-1.6,5-1.2,6.5,0.8
	c1.6,2,1.2,4.9-0.8,6.5l-75.8,58.6C839.5,788.5,838.5,788.8,837.5,788.8z"/>
<path class="st4" d="M715.2,755.9c-2.5,0-4.5-1.9-4.6-4.4l-4.3-78.6c-0.1-2.6,1.8-4.8,4.4-4.9c2.6-0.1,4.8,1.8,4.9,4.4l4.3,78.6
	c0.1,2.6-1.8,4.8-4.4,4.9C715.4,755.9,715.3,755.9,715.2,755.9z"/>
<path class="st3" d="M1180.5,825.2c-1.2,0-2.4-0.5-3.4-1.4c-1.8-1.9-1.7-4.8,0.2-6.6l16.4-15.7l-20.6-28.3c-1.5-2.1-1-5,1-6.5
	c2.1-1.5,5-1,6.5,1l22.9,31.6c1.4,1.9,1.1,4.5-0.6,6.1l-19.3,18.5C1182.8,824.7,1181.7,825.2,1180.5,825.2z"/>
<path class="st1" d="M1010.2,460.5c-13.3,1.6-62.9-32.4-78.4-100.3c-3.8-16.5-9.5-41.7-11.5-50.3c-0.4-1.6-2-2.6-3.6-2.1l-28.8,8
	c-1.3,3.8-11.4,41.2-14.1,58.9L850.2,396l13.6,20c2.8,29.7,13,52,45.4,62.9c7.3,2.5,12.3,9.1,12.6,16.8l2.1,52.9l101.5-5.4
	L1010.2,460.5z"/>
<path class="st3" d="M923.9,553.2c-1.2,0-2.3-0.4-3.1-1.2c-0.9-0.8-1.5-2-1.5-3.3l-2.1-52.9c-0.2-5.7-4-10.8-9.4-12.6
	c-37.9-12.7-45.9-40.2-48.5-65.7l-13-19c-1.3-1.9-1-4.5,0.7-6.1l22.4-20.2c3.1-18.8,12.8-54.5,14-58.1c0.8-2.4,3.5-3.7,5.9-2.9
	c2.4,0.8,3.7,3.4,2.9,5.9c-1.1,3.4-11.3,40.8-13.9,58.2c-0.2,1.1-0.7,2-1.5,2.8l-20.6,18.6l11.4,16.6c0.4,0.6,0.7,1.4,0.8,2.2
	c3.1,32.8,15.4,49.9,42.3,59c9,3,15.4,11.5,15.7,21l1.9,48.2l91.5-4.9l-14.3-77.4c-0.5-2.5,1.2-4.9,3.7-5.4c2.5-0.5,4.9,1.2,5.4,3.7
	l15.2,82.6c0.2,1.3-0.1,2.7-0.9,3.7c-0.8,1-2.1,1.7-3.4,1.8l-101.5,5.4C924.1,553.2,924,553.2,923.9,553.2z"/>
<path class="st3" d="M906.7,363.2c-1.1,0-2.2-0.4-3.1-1.2c-0.4-0.4-10.7-9.4-21.5-4.3c-2.3,1.1-5.1,0.1-6.2-2.2
	c-1.1-2.3-0.1-5.1,2.2-6.2c16.5-7.7,31.1,5.3,31.7,5.9c1.9,1.7,2,4.7,0.3,6.6C909.2,362.7,908,363.2,906.7,363.2z"/>
<path class="st3" d="M884.6,417.4c-2,2.7-4.6,5.3-7.8,7.1c-1.6,0.9-3.4,1.6-5.2,2c-2,0.4-3.5,0.7-6.2,0.4l-0.5-0.1
	c-2.6-0.3-4.4-2.6-4.1-5.2c0.3-2.6,2.6-4.4,5.2-4.1c0.4,0,0.9,0.2,1.2,0.3c0.3,0.1,1.7,0.2,2.7,0c1.1-0.1,2.1-0.4,3.2-0.9
	c2.1-0.9,4.1-2.4,5.8-4.3c1.4-1.6,3.8-1.7,5.3-0.3C885.5,413.7,885.7,415.9,884.6,417.4z"/>
<path class="st0" d="M1151.1,521.4c-71-42-77.3-130.7-77.4-138.5c-1.4-68.6-37.1-107.2-101.7-110.1c-50.5-2.3-98.9,5.9-110.4,43
	c-9.1,29,11.2,42.8,11.2,42.8c6.6-26.4,35.7-40,35.7-40s15.8,46.5,25.9,66.8c6.2,12.4,10.2,28,3.4,37c-28.7,37.8-92.1,44-92.8,134.8
	c0,0,87.1-17.4,94.1,79.2c6,82.2,137.3,148.7,233.3,105.9C1268.2,699.4,1225.4,565.3,1151.1,521.4z"/>
<path class="st3" d="M1097.3,773c-28.5,0-58.1-7.9-84.9-23.3c-41.9-24.2-68.3-61.6-70.8-100.2c-0.2-2.6,1.8-4.8,4.3-4.9
	c2.3-0.2,4.8,1.8,4.9,4.3c2.3,35.4,27,70.1,66.2,92.7c44.5,25.7,97.1,29.3,137.4,9.3c30.7-15.2,47.5-44.6,47.4-82.8
	c0-2.6,2.1-4.7,4.6-4.7c2.8,0,4.7,2.1,4.7,4.6c0.2,41.9-18.5,74.3-52.5,91.1C1140,768.4,1119,773,1097.3,773z"/>
<path class="st3" d="M891.3,379.1c2.2,0.3,4.4-1.2,4.7-3.4l0.5-3.2c0.3-2.2-1.2-4.4-3.4-4.7c-2.2-0.3-4.4,1.2-4.7,3.4l-0.5,3.2
	C887.5,376.7,889,378.8,891.3,379.1z"/>
<path class="st1" d="M937.8,370.2c-2.6,0.9-5.1,2.3-7.3,4.2c-8.9,7.6-10.6,20.2-3.8,28.3c6.8,8,19.6,8.4,28.5,0.8
	c8.9-7.6,10.6-20.2,3.8-28.3C953.9,369.2,945.5,367.5,937.8,370.2L937.8,370.2z"/>
<path class="st3" d="M942.9,402.2c-0.5,0-1-0.1-1.5-0.3l-8.5-3c-1.4-0.5-2.4-1.6-2.9-3c-0.4-1.4-0.2-2.9,0.6-4.1l10.2-14.5
	c1.5-2.1,4.4-2.6,6.5-1.1c2.1,1.5,2.6,4.4,1.1,6.5l-6.7,9.5l2.7,0.9c2.4,0.8,3.7,3.5,2.9,5.9C946.6,401,944.8,402.2,942.9,402.2z"/>
<path class="st1" d="M648,191.8H246.9c-2.6,0-4.7-2.1-4.7-4.6c0-2.6,2.1-4.6,4.7-4.6H648c2.6,0,4.7,2.1,4.7,4.6
	C652.6,189.7,650.6,191.8,648,191.8z"/>
<rect x="619.3" y="72.8" class="st2" width="661.9" height="143.7"/>
<path class="st1" d="M271.1,167.5c-9.3,0-16.8-7.5-16.8-16.8s7.5-16.8,16.8-16.8c9.3,0,16.8,7.5,16.8,16.8S280.4,167.5,271.1,167.5z
	 M271.1,143.2c-4.1,0-7.5,3.4-7.5,7.5c0,4.1,3.4,7.5,7.5,7.5c4.1,0,7.5-3.4,7.5-7.5C278.6,146.5,275.3,143.2,271.1,143.2z"/>
<path class="st1" d="M329.1,150.7c0,6.7-5.4,12.2-12.2,12.2c-6.7,0-12.2-5.4-12.2-12.2c0-6.7,5.4-12.2,12.2-12.2
	C323.6,138.5,329.1,144,329.1,150.7z"/>
<path class="st2" d="M374.8,150.7c0,6.7-5.4,12.2-12.2,12.2c-6.7,0-12.2-5.4-12.2-12.2c0-6.7,5.4-12.2,12.2-12.2
	C369.4,138.5,374.8,144,374.8,150.7z"/>
<ellipse transform="matrix(0.9239 -0.3827 0.3827 0.9239 36.9763 475.1405)" class="st4" cx="1212.8" cy="144.6" rx="42.5" ry="42.5"/>
<rect x="657.7" y="102.1" class="st1" width="484.6" height="85"/>
<path class="st4" d="M1142.3,191.8H657.7c-2.6,0-4.7-2.1-4.7-4.6v-85c0-2.6,2.1-4.6,4.7-4.6h484.6c2.6,0,4.7,2.1,4.7,4.6v85
	C1146.9,189.7,1144.8,191.8,1142.3,191.8z M662.3,182.5h475.3v-75.8H662.3V182.5z"/>
<path class="st0" d="M502,998.1c-28.6,0-42.7-18.8-56.3-37c-12.8-17.1-24.9-33.3-48.9-33.3c-2.6,0-4.7-2.1-4.7-4.6
	c0-2.6,2.1-4.6,4.7-4.6c28.6,0,42.7,18.8,56.3,37c12.8,17.1,24.9,33.3,48.9,33.3c24,0,36.1-16.2,48.9-33.3
	c13.6-18.2,27.7-37,56.3-37s42.7,18.8,56.3,37c12.5,16.7,24.3,32.5,47.1,33.2c2.6,0.1,4.6,2.2,4.5,4.8c-0.1,2.6-2.5,4.6-4.8,4.5
	c-27.2-0.9-40.9-19.2-54.2-36.9c-12.8-17.1-24.9-33.3-48.9-33.3c-24,0-36.1,16.2-48.9,33.3C544.7,979.3,530.6,998.1,502,998.1z"/>
<path class="st2" d="M509.5,339.5c-2.6,0-4.7-2.1-4.7-4.6v-27.6c0-2.6,2.1-4.6,4.7-4.6c2.6,0,4.7,2.1,4.7,4.6v27.6
	C514.1,337.4,512,339.5,509.5,339.5z"/>
<path class="st2" d="M470.8,355.5c-1.2,0-2.4-0.5-3.3-1.4L448,334.6c-1.8-1.8-1.8-4.8,0-6.6c1.8-1.8,4.8-1.8,6.6,0l19.6,19.5
	c1.8,1.8,1.8,4.8,0,6.6C473.2,355,472,355.5,470.8,355.5z"/>
<path class="st2" d="M548.1,355.5c-1.2,0-2.4-0.5-3.3-1.4c-1.8-1.8-1.8-4.8,0-6.6l19.5-19.5c1.8-1.8,4.8-1.8,6.6,0
	c1.8,1.8,1.8,4.8,0,6.6l-19.5,19.5C550.5,355,549.3,355.5,548.1,355.5z"/>
</svg>
