<?xml version="1.0" encoding="utf-8"?>
<!-- Generator: Adobe Illustrator 25.3.1, SVG Export Plug-In . SVG Version: 6.00 Build 0)  -->
<svg version="1.1" id="Camada_1" xmlns="http://www.w3.org/2000/svg" xmlns:xlink="http://www.w3.org/1999/xlink" x="0px" y="0px"
	 viewBox="0 0 600 400" style="enable-background:new 0 0 600 400;" xml:space="preserve">
<style type="text/css">
	.st0{fill:#FFFFFF;}
	.st1{fill:#F88379;}
	.st2{fill:#2F2F41;}
	.st3{fill:#1A3142;}
	.st4{clip-path:url(#SVGID_2_);fill:#FFFFFF;}
	.st5{fill:#55CED7;}
	.st6{fill:#FF7C48;}
</style>
<g>
	<path class="st0" d="M253.3,339.4l-0.8-29.1c4.4,7.5,27.6,43.1,53.5,26.3c29.6-19.3,8.4-75.1-27.6-105.8l-11.4-14.7
		c-15.3-15.6-28.3-26.3-62-25.3l-31.2,1.3c-54.2-0.9-55.7,17.6-87.3,67.2c-42,66,9.2,98.9,45.2,74.6v6L253.3,339.4z"/>
</g>
<path class="st1" d="M348,221.1c-5.1,0-9.3-4.2-9.3-9.3c0-5.1,4.2-9.3,9.3-9.3c5.1,0,9.3,4.2,9.3,9.3
	C357.2,216.9,353.1,221.1,348,221.1z M348,205.2c-3.7,0-6.6,3-6.6,6.6c0,3.7,3,6.6,6.6,6.6c3.7,0,6.6-3,6.6-6.6
	C354.6,208.2,351.6,205.2,348,205.2z"/>
<path class="st0" d="M153.1,193c23.6-1.4,38.1-1.6,69.8-1.4c0,0-9.4,17.2-30.2,17.2C169.9,208.1,153.1,193,153.1,193z"/>
<g>
	<path class="st2" d="M106.6,343.3c-9.7,0-19-3.4-26-10.2c-16.4-16-14.6-43.8,4.9-74.4c4.7-7.4,8.8-14.2,12.4-20.2
		c20.6-34.3,29.3-48.4,76-47.6l31.1-1.3c34.1-1,47.6,10,63,25.7l11.4,14.7c25.8,22.1,43.4,56.2,41.8,81.1
		c-0.8,11.8-5.8,21-14.5,26.7c-6.7,4.3-13.7,5.7-20.9,4c-14.7-3.4-26.6-18.7-31.9-26.6l0.7,24.3c0,0.7-0.6,1.3-1.3,1.3
		c-0.7,0-1.3-0.6-1.3-1.3l-0.8-29.1c0-0.6,0.4-1.1,0.9-1.3c0.6-0.2,1.2,0.1,1.5,0.6c2.5,4.2,15.8,25.5,32.8,29.5
		c6.5,1.5,12.9,0.3,18.9-3.6c8.1-5.3,12.6-13.6,13.3-24.6c1.6-24.2-15.7-57.5-41-79c-0.1-0.1-0.1-0.1-0.2-0.2L266.1,217
		c-15.3-15.6-27.8-25.8-60.9-24.8l-31.2,1.3c-45.4-0.8-53.1,12-73.8,46.4c-3.6,6-7.7,12.8-12.4,20.2C69,289.5,67,316.1,82.4,331.2
		c12.3,12,32.3,12.7,48.7,1.7c0.4-0.3,0.9-0.3,1.3-0.1c0.4,0.2,0.7,0.7,0.7,1.2v6c0,0.7-0.6,1.3-1.3,1.3s-1.3-0.6-1.3-1.3v-3.6
		C122.9,341,114.6,343.3,106.6,343.3z"/>
</g>
<path d="M260.7,230.1c-0.5,0-0.9-0.4-0.9-0.9l0-10.2c0-0.5,0.4-0.9,0.9-0.9c0.5,0,0.9,0.4,0.9,0.9l0,10.2
	C261.5,229.7,261.2,230.1,260.7,230.1z"/>
<ellipse transform="matrix(0.3827 -0.9239 0.9239 0.3827 -10.0567 258.5162)" class="st2" cx="188.4" cy="136.8" rx="41.9" ry="41.9"/>
<ellipse transform="matrix(0.3827 -0.9239 0.9239 0.3827 18.4247 209.0183)" class="st2" cx="165.6" cy="90.7" rx="27.6" ry="27.6"/>
<path class="st2" d="M169.4,116.9c-16,0-29-13-29-29c0-16,13-29,29-29s29,13,29,29C198.3,103.9,185.3,116.9,169.4,116.9z
	 M169.4,61.6C154.9,61.6,143,73.4,143,88s11.8,26.3,26.3,26.3c14.5,0,26.3-11.8,26.3-26.3S183.9,61.6,169.4,61.6z"/>
<path class="st0" d="M172,196.2v-21c13.2-4.2,11.3-17,11.1-22.6l2.3-9.7c6.8-0.9,20.3-6,34-24.1c0.8-1.1,2.5-1,3.2,0.2
	c0.8,1.4,1.7,3.2,2.7,5.1c3.6,6.9,5.5,14.5,5.6,22.3c0,0.1,0,0.2,0,0.3c0,18.8-2.1,33.1-25.6,33.1v15.4L172,196.2z"/>
<path class="st3" d="M205.4,192.6c-0.7,0-1.3-0.6-1.3-1.3v-11.4c0-0.3,0.1-0.7,0.4-0.9c0.2-0.2,0.6-0.4,0.9-0.4
	c10.4,0,16.9-2.8,20.4-8.8c3.2-5.4,3.8-13.1,3.8-22.9c-0.7-12.7-4.7-23.9-4.8-24c-0.2-0.7,0.1-1.4,0.8-1.7c0.7-0.2,1.4,0.1,1.7,0.8
	c0.2,0.5,4.2,11.7,4.9,24.6c0,0,0,0.3,0,0.3c0,10.3-0.7,18.4-4.2,24.3c-3.8,6.6-10.8,9.9-21.4,10.1v10.1
	C206.7,192,206.1,192.6,205.4,192.6z"/>
<path class="st3" d="M172,193.4c-0.7,0-1.3-0.6-1.3-1.3v-16.8c0-0.7,0.6-1.3,1.3-1.3c0.7,0,1.3,0.6,1.3,1.3v16.8
	C173.3,192.8,172.7,193.4,172,193.4z"/>
<path class="st3" d="M212.4,135.1c-0.3,0-0.6-0.1-0.9-0.3c-5.6-5-12.2-1.1-12.5-0.9c-0.6,0.4-1.4,0.2-1.8-0.4
	c-0.4-0.6-0.2-1.4,0.4-1.8c0.1-0.1,8.5-5.1,15.6,1.2c0.5,0.5,0.6,1.3,0.1,1.8C213.1,134.9,212.7,135.1,212.4,135.1z"/>
<path class="st3" d="M206.2,146c-0.9,0-1.6-0.7-1.6-1.5l0-1.2c0-0.9,0.7-1.6,1.5-1.6c0.9,0,1.6,0.7,1.6,1.5l0,1.2
	C207.8,145.3,207.1,146,206.2,146z"/>
<path class="st3" d="M225.2,145.5c-0.9,0-1.6-0.7-1.6-1.5l0-1.2c0-0.9,0.7-1.6,1.5-1.6c0.9,0,1.6,0.7,1.6,1.5l0,1.2
	C226.8,144.8,226.1,145.5,225.2,145.5z"/>
<path class="st3" d="M222.1,155.3c-0.7,0-1.3-0.5-1.3-1.2l-0.8-12.8c-0.9-5.7,2.2-10.9,7.5-12.5c0.7-0.2,1.4,0.2,1.6,0.9
	c0.2,0.7-0.2,1.4-0.9,1.6c-4,1.2-6.4,5.2-5.7,9.7l0.8,12.9C223.5,154.6,222.9,155.3,222.1,155.3
	C222.2,155.3,222.2,155.3,222.1,155.3z"/>
<path class="st3" d="M204.8,181.2c-7.1,0-12.8-2.3-13.1-2.5c-0.7-0.3-1-1-0.7-1.7c0.3-0.7,1-1,1.7-0.7c0.1,0,5.8,2.4,12.6,2.2
	c0.7,0,1.3,0.6,1.3,1.3c0,0.7-0.6,1.3-1.3,1.3C205.2,181.2,205,181.2,204.8,181.2z"/>
<path class="st3" d="M221.1,161.6c-2,0-3.7-0.9-4.5-1.6c-0.5-0.5-0.6-1.3-0.1-1.8c0.5-0.5,1.3-0.6,1.8-0.1c0.3,0.2,2.7,2.1,5.9-0.1
	c0.6-0.4,1.4-0.3,1.8,0.3c0.4,0.6,0.3,1.4-0.3,1.8C224.1,161.2,222.5,161.6,221.1,161.6z"/>
<g>
	<path class="st0" d="M192.2,155.6c-3.2,4.2-9.6,4.8-14.3,1.2c-4.7-3.6-5.9-9.9-2.7-14.1c3.2-4.2,9.6-4.8,14.3-1.2
		C194.1,145,195.4,151.3,192.2,155.6z"/>
	<path class="st3" d="M183.8,154.7c-0.5,0-1-0.3-1.2-0.8c-0.3-0.7,0-1.4,0.7-1.7l2.6-1.1l-4.5-5.7c-0.5-0.6-0.4-1.4,0.2-1.8
		c0.6-0.4,1.4-0.4,1.8,0.2l5.6,7c0.3,0.3,0.3,0.7,0.2,1.1c-0.1,0.4-0.4,0.7-0.8,0.9l-4.2,1.7C184.2,154.7,184,154.7,183.8,154.7z"/>
</g>
<path class="st3" d="M192.2,209.8c-19.4,0-38.9-14.2-39.8-14.8c-0.6-0.4-0.7-1.2-0.3-1.8c0.4-0.6,1.2-0.7,1.8-0.3
	c0.2,0.2,21.5,15.6,40.8,14.2c19-1.4,26.4-15.5,26.5-15.6c0.3-0.6,1.1-0.9,1.8-0.6c0.6,0.3,0.9,1.1,0.6,1.8
	c-0.3,0.6-8.1,15.6-28.6,17.1C194,209.8,193.1,209.8,192.2,209.8z"/>
<rect x="260.2" y="68.7" class="st1" width="119.4" height="119.4"/>
<rect x="379.6" y="188.1" class="st2" width="119.4" height="119.4"/>
<g>
	<defs>
		<rect id="SVGID_1_" x="260.2" y="68.7" width="119.4" height="119.4"/>
	</defs>
	<clipPath id="SVGID_2_">
		<use xlink:href="#SVGID_1_"  style="overflow:visible;"/>
	</clipPath>
	<path class="st4" d="M272,129.9c-28.7,0-52-23.3-52-52s23.3-52,52-52c28.7,0,52,23.3,52,52S300.6,129.9,272,129.9z M272,28.5
		c-27.2,0-49.4,22.1-49.4,49.4c0,27.2,22.1,49.4,49.4,49.4c27.2,0,49.4-22.1,49.4-49.4C321.3,50.7,299.2,28.5,272,28.5z"/>
</g>
<g>
	<path class="st2" d="M463,106.2c-0.3,0-0.7-0.1-0.9-0.4c-0.5-0.5-0.5-1.3,0-1.9l25.7-25.7c0.5-0.5,1.3-0.5,1.9,0
		c0.5,0.5,0.5,1.3,0,1.9l-25.7,25.7C463.6,106.1,463.3,106.2,463,106.2z"/>
	<path class="st2" d="M488.7,106.2c-0.3,0-0.7-0.1-0.9-0.4L462,80.2c-0.5-0.5-0.5-1.3,0-1.9c0.5-0.5,1.3-0.5,1.9,0l25.7,25.7
		c0.5,0.5,0.5,1.3,0,1.9C489.3,106.1,489,106.2,488.7,106.2z"/>
</g>
<rect x="153.6" y="204.2" class="st5" width="119.4" height="119.4"/>
<g>
	<path class="st0" d="M213.3,287.6c-13.1,0-23.8-10.7-23.8-23.8c0-13.1,10.7-23.8,23.8-23.8c13.1,0,23.8,10.7,23.8,23.8
		C237,277,226.4,287.6,213.3,287.6z M213.3,242.7c-11.7,0-21.1,9.5-21.1,21.1c0,11.7,9.5,21.1,21.1,21.1c11.7,0,21.1-9.5,21.1-21.1
		C234.4,252.2,224.9,242.7,213.3,242.7z"/>
</g>
<path class="st0" d="M286.3,253.1c0.1-5.3-5.6-6-5.6-6s6.3-0.2,6.3-6.2c0-3.4-0.9-4.6-2-5.6c0.6-1.4,1.3-5.3,0-8.5
	c-1.8-4.3-16-9.2-17.9-9.7c-1.9-0.5-7.2-2.1-9.4,2c-2.2,4,1.7,8.4,8.5,11.2c6.8,2.8,9.7,4.4,9.7,4.4s-8.4-0.5-12.8-0.8
	c-4.4-0.3-10.3,1.4-11,5.6c-0.5,2.9,2.8,5.2,9.6,6.4c-4.7,0.2-9.3,1.5-9.7,5.8c-0.5,5.2,5,6.9,10.5,7.4c-3.6,0.3-7,1.3-7.3,3.8
	c-0.8,5.6,5.3,7.9,17.8,9.1v7.7c0,0,12.7-5.1,12.4-12.3c-0.3-7.2-3.2-7.8-3.2-7.8S286.2,258.5,286.3,253.1z"/>
<path class="st2" d="M273,280.9c-0.3,0-0.5-0.1-0.7-0.2c-0.4-0.2-0.6-0.7-0.6-1.1v-6.5c-9.4-1-14.3-2.6-16.5-5.5
	c-1.1-1.4-1.5-3.1-1.2-5c0.2-1.5,1.1-2.6,2.7-3.5c-5.2-1.8-6.2-5-5.9-7.7c0.2-2.1,1.3-4.5,5-5.9c-4.5-1.8-5.3-4.3-5-6.3
	c0.8-4.7,7-7,12.4-6.7c1.6,0.1,3.8,0.2,6,0.4c-1-0.4-2.1-0.9-3.4-1.4c-5.1-2.1-8.5-5-9.6-8c-0.6-1.7-0.5-3.4,0.4-5
	c2.6-4.8,8.4-3.3,10.6-2.7c0.4,0.1,16.8,5.2,19,10.5c1.2,2.9,1,6.6,0.3,8.7c1.1,1.3,1.8,2.9,1.8,5.9c0,3.4-1.7,5.4-3.6,6.4
	c1.6,1.1,3,3,3,5.9c0,3.4-1.6,5.4-3.1,6.6c1,1.2,2,3.5,2.1,7.5c0.3,8-12.6,13.3-13.2,13.6C273.3,280.9,273.1,280.9,273,280.9z
	 M262.1,235.1c-4,0-8.3,1.6-8.8,4.5c-0.3,2,2.9,3.9,8.6,4.9c0.7,0.1,1.1,0.7,1.1,1.4c0,0.7-0.6,1.2-1.2,1.2
	c-5.3,0.2-8.1,1.8-8.4,4.6c-0.1,1.2-0.5,5,9.3,6c0.7,0.1,1.2,0.6,1.2,1.3c0,0.7-0.5,1.2-1.2,1.3c-3.7,0.3-5.9,1.3-6.1,2.7
	c-0.2,1.2,0,2.2,0.7,3c2.3,3,10.2,4,15.9,4.6c0.7,0.1,1.2,0.6,1.2,1.3v5.6c3.9-1.9,9.9-5.9,9.8-10.2c-0.3-5.8-2.2-6.6-2.3-6.6
	c-0.6-0.1-1-0.6-1-1.2c0-0.6,0.4-1.1,1-1.3c0.3-0.1,3.1-1,3.2-5.1c0.1-4-4-4.7-4.5-4.7c-0.7-0.1-1.2-0.7-1.1-1.4s0.6-1.2,1.3-1.2
	c0.5,0,5-0.3,5-4.9c0-3.2-0.8-4-1.6-4.7c-0.4-0.4-0.5-1-0.3-1.5c0.6-1.2,1.1-4.7,0-7.4c-1.4-3.4-14.2-8.2-17-8.9
	c-3.2-0.8-6.5-1.3-7.9,1.3c-0.5,0.9-0.6,1.9-0.2,2.9c0.8,2.3,3.8,4.7,8.1,6.5c6.8,2.8,9.7,4.4,9.8,4.4c0.5,0.3,0.8,0.9,0.6,1.5
	c-0.2,0.6-0.7,1-1.3,1c0,0-8.4-0.5-12.8-0.8C262.7,235.1,262.4,235.1,262.1,235.1z"/>
<g>
	<g>
		<path class="st2" d="M285,236.5c-0.1,0-9.2-0.6-9.2-0.6c-0.7,0-1.3-0.7-1.2-1.4c0-0.7,0.7-1.3,1.4-1.2l9.1,0.6
			c0.7,0,1.3,0.7,1.2,1.4C286.2,236,285.7,236.5,285,236.5z"/>
		<path class="st2" d="M280.7,248.4c-0.1,0-19.5-1.3-19.5-1.3c-0.7,0-1.3-0.7-1.2-1.4c0-0.7,0.7-1.3,1.4-1.2l19.4,1.3
			c0.7,0,1.3,0.7,1.2,1.4C281.9,247.9,281.4,248.4,280.7,248.4z"/>
		<path class="st2" d="M282.1,260.8c0,0-19.7-0.5-19.7-0.5c-0.7,0-1.3-0.6-1.3-1.3c0-0.7,0.6-1.3,1.3-1.3c0,0,19.7,0.5,19.7,0.5
			c0.7,0,1.3,0.6,1.3,1.3C283.4,260.2,282.8,260.8,282.1,260.8z"/>
	</g>
</g>
<path class="st0" d="M190.4,249.5c-1.4-4.5-4.3-5.1-8.2-4.3c4.4-1.8,7.6-4.8,6.2-8.8c-1.8-5.2-7.6-4.2-13.4-2.4
	c1.3-0.6-4.2,2.1-10,3.2c5.8-7.8,10.1-16.3,6.1-19.2c-3.8-2.7-10.1,1.5-13.6,6.1c-2.9,3.8-16.1,15.7-16.1,21.2
	c0,5.5,0.7,12.4,0.7,12.4l-14.5,11.3l23.8,31.2c0,0,19.2-14.8,13.5-24.4c0,0,11.4-4.2,13.9-5.2c2.5-1,8-3.3,6.2-8.3
	c-1.5-4-3.5-2.9-6.5-2.2C183,258.5,192.1,254.9,190.4,249.5z"/>
<path class="st2" d="M151.5,301.3c-0.1,0-0.1,0-0.2,0c-0.3,0-0.7-0.2-0.9-0.5l-23.8-31.2c-0.4-0.6-0.3-1.4,0.2-1.8l13.9-10.9
	c-0.2-1.9-0.6-7.2-0.6-11.8c0-4.2,5.6-10.4,12.3-17.4c1.8-1.9,3.4-3.5,4.1-4.5c3.6-4.7,10.7-9.8,15.4-6.4c1.1,0.8,1.8,2,2,3.4
	c0.6,4.1-2.4,9.8-5.8,14.7c2.9-0.8,5.3-1.9,6.1-2.2c0.1,0,0.1-0.1,0.2-0.1c0.1,0,0.1,0,0.2-0.1c3.8-1.2,12.4-3.9,14.9,3.3
	c1,3,0.1,5.8-2.6,8c1.9,0.6,3.6,2,4.6,5.2c0.5,1.5,0.3,3-0.4,4.4c-1.2,2.2-3.7,4-6.5,5.4c0.6,0.6,1.2,1.4,1.6,2.7
	c2.3,6.1-4.3,8.9-6.8,9.9c-2.1,0.9-9.6,3.6-12.7,4.8c3.9,10.4-13.7,24.1-14.5,24.7C152.1,301.2,151.8,301.3,151.5,301.3z M129.5,269
	l22.2,29.1c5.5-4.5,16.1-15.3,12.2-21.9c-0.2-0.3-0.2-0.7-0.1-1.1c0.1-0.4,0.4-0.7,0.8-0.8c0.1,0,11.4-4.2,13.8-5.2
	c4.2-1.8,6.6-3.5,5.4-6.6c-0.9-2.4-1.5-2.3-3.9-1.6l-1,0.2c-0.7,0.2-1.4-0.2-1.6-0.9c-0.2-0.7,0.2-1.4,0.9-1.6
	c5.6-1.8,9.5-4.1,10.7-6.3c0.4-0.8,0.5-1.6,0.2-2.4c-1-3.3-2.8-4.2-6.7-3.4c-0.7,0.1-1.3-0.3-1.5-0.9c-0.2-0.6,0.1-1.3,0.8-1.6
	c2.1-0.8,6.8-3.2,5.4-7.2c-1.2-3.4-4.6-3.9-11.7-1.6c-0.1,0-0.1,0-0.2,0c-2.8,1.5-9.3,3.1-9.9,3.2c-0.5,0.1-1.1-0.1-1.4-0.6
	c-0.3-0.5-0.3-1,0.1-1.5c5.1-6.8,7.8-12.6,7.3-15.6c-0.1-0.8-0.4-1.3-1-1.7c-2.8-2.1-8.4,1.4-11.8,5.8c-0.8,1.1-2.4,2.7-4.3,4.7
	c-4.3,4.6-11.5,12.2-11.5,15.6c0,5.4,0.6,12.2,0.7,12.2c0,0.4-0.1,0.9-0.5,1.2L129.5,269z"/>
<g>
	<path class="st3" d="M143.5,270.8c-0.7,0-1.2-0.5-1.3-1.2l-1.4-12c-0.1-0.7,0.4-1.4,1.2-1.4c0.7-0.1,1.4,0.4,1.4,1.2l1.4,12
		c0.1,0.7-0.4,1.4-1.2,1.4C143.6,270.8,143.5,270.8,143.5,270.8z"/>
	<path class="st3" d="M160.7,266.6c-0.6,0-1.1-0.4-1.3-0.9c-0.2-0.7,0.2-1.4,0.9-1.6l22.5-6.9c0.7-0.2,1.4,0.2,1.6,0.9
		c0.2,0.7-0.2,1.4-0.9,1.6l-22.5,6.9C161,266.6,160.8,266.6,160.7,266.6z"/>
	<path class="st3" d="M153.7,255.1c-0.6,0-1.1-0.4-1.3-0.9c-0.2-0.7,0.2-1.4,0.9-1.6l28.5-8.6c0.7-0.2,1.4,0.2,1.6,0.9
		c0.2,0.7-0.2,1.4-0.9,1.6l-28.5,8.6C154,255.1,153.8,255.1,153.7,255.1z"/>
	<path class="st3" d="M150.6,243c-0.6,0-1.1-0.4-1.2-0.9c-0.2-0.7,0.2-1.4,0.8-1.6l24.4-7.8c0.7-0.2,1.4,0.2,1.6,0.8
		c0.2,0.7-0.2,1.4-0.8,1.6l-24.4,7.8C150.9,243,150.7,243,150.6,243z"/>
</g>
<path class="st2" d="M131.8,335.3c-0.3,0-0.6-0.1-0.9-0.3c-0.5-0.5-0.6-1.3-0.1-1.9l23.9-26.6l-33.6-43.9l-38.5,32.6
	c-0.5,0.5-1.4,0.4-1.8-0.2c-0.5-0.6-0.4-1.4,0.2-1.8l39.5-33.5c0.3-0.2,0.6-0.3,1-0.3c0.4,0,0.7,0.2,0.9,0.5l35.1,45.9
	c0.4,0.5,0.4,1.2-0.1,1.7l-24.7,27.4C132.5,335.1,132.2,335.3,131.8,335.3z"/>
<path class="st6" d="M189.8,161.5c0,3.2-2.6,5.8-5.8,5.8c-3.2,0-5.8-2.6-5.8-5.8c0-3.2,2.6-5.8,5.8-5.8
	C187.2,155.7,189.8,158.3,189.8,161.5z"/>
</svg>
