<?xml version="1.0" encoding="utf-8"?>
<!-- Generator: Adobe Illustrator 25.3.1, SVG Export Plug-In . SVG Version: 6.00 Build 0)  -->
<svg version="1.1" id="Camada_1" xmlns="http://www.w3.org/2000/svg" xmlns:xlink="http://www.w3.org/1999/xlink" x="0px" y="0px"
	 viewBox="0 0 1600 1029.4" style="enable-background:new 0 0 1600 1029.4;" xml:space="preserve">
<style type="text/css">
	.st0{clip-path:url(#SVGID_2_);fill:#FFFFFF;}
	.st1{clip-path:url(#SVGID_2_);fill:#1A3142;}
	.st2{clip-path:url(#SVGID_2_);fill:#2F2F41;}
	.st3{clip-path:url(#SVGID_2_);fill-rule:evenodd;clip-rule:evenodd;fill:#FFFFFF;}
	.st4{clip-path:url(#SVGID_2_);}
	.st5{fill:#FFFFFF;}
	.st6{fill:#1A3142;}
	.st7{clip-path:url(#SVGID_6_);fill:#F24088;}
	.st8{clip-path:url(#SVGID_8_);fill:#FFFFFF;}
</style>
<g>
	<defs>
		<rect id="SVGID_1_" x="200.4" y="224" width="1374.2" height="805.4"/>
	</defs>
	<clipPath id="SVGID_2_">
		<use xlink:href="#SVGID_1_"  style="overflow:visible;"/>
	</clipPath>
	<path class="st0" d="M502.3,341.1l-40.1-3.9c0,0,25.1-12.7,41.8-14.1c10.2-0.9,41.2-1.1,41.2-1.1c23.2-6.5,47.8,6.4,47.8,6.4
		c39.5-4.4,54.4,11.6,54.4,11.6c16.9,0.7,27.1,4,35.9,18.4c8.8,14.4,6.4,32.4-9.3,35.9c-7.1,1.6-19.2-4.8-25.1-14.7
		C648,392.1,643,399,630,400.2c-18.8,1.7-20.2-12.1-20.2-12.1s-7.9,8.8-21.7,9.8c-13.7,1.1-19.4-3.2-22-13
		c-2.6-9.8-9.3-20.6-9.3-20.6s7.1,15.5-21.8,13.7C520.4,377,504.3,355.6,502.3,341.1z"/>
	<path class="st1" d="M465.5,897.7c-0.3,0-0.7,0-1-0.1c-119-32.2-201-140-194.9-256.3c3.1-58.9,28.1-115.1,70.5-158.1
		c40.5-41.1,95.1-68.5,153.7-77.1c2.1-0.3,4.2,1.2,4.6,3.4c0.3,2.2-1.2,4.2-3.4,4.6c-56.9,8.4-109.8,35-149.1,74.8
		c-41,41.6-65.3,95.9-68.2,152.9c-5.9,112.6,73.6,217,189,248.2c2.1,0.6,3.4,2.8,2.8,4.9C468.8,896.5,467.2,897.7,465.5,897.7z"/>
	<path class="st2" d="M1172.6,488.5c5.1-98.2-70.3-181.9-168.5-187.1c-47.6-2.5-84.1,15.4-122.8,40c-40,25.3-85.3,41.7-131.9,49.7
		c-41.3,7.1-83.6,7.7-125.3,3.2c-34.1-3.6-65.7-7.1-100.1-1.6c-57.9,9.3-111.8,38.3-151.7,81.3c-41.8,45.1-66.7,104.2-69.9,165.6
		C296,760.9,376.6,874,493.5,907.3c61.4,17.5,124.9,7.8,184.4-13.3c73.7-26.2,145-65.8,212.1-105.6
		c63.2-37.5,125.1-78.8,180.2-127.6c33.4-29.6,69.5-64.3,86.1-106.7C1165.6,534,1171.3,511.9,1172.6,488.5z"/>
	<path class="st0" d="M671,377.5l-208.8-40.4L415,648.9l188,67.9c0,0,29.4-129.7,73.8-193.7C721.3,459.2,671,377.5,671,377.5
		L671,377.5z"/>
	<path class="st3" d="M560.5,947.3c0,0,98.5-205.6,154.2-246.9c70.6-52.4,185.3-51.5,185.3-51.5s110.8-8.8,141.4-6.4
		c51.3,3.9,269.9,4.7,320.1,120.6c110.7,255.7,176.4,387.3,159.6,456.8c-16.3,67.6-103.8,72.7-228.5,54.8c0,0,17.4,105.5,23.6,147.7
		c0,0-109.4,28.2-365.9,28.4c-166.9,0.2-286.2-48.4-286.2-48.4L560.5,947.3z"/>
	<path class="st0" d="M1079.6,644.1l-13.2-186.3c-60.2,24.8-142.9-22.2-144.2-77.7c0,0-27.3,16.5-33.6,58.6
		c-9.7,64-11.4,120.7,17.3,142.3c1.9,1.4,12.3,12.1,31.6,14.9l-1.4,50.4c-21.4,1.4-38.7,2-38.7,2s-29.6,1.2-70.4,8.8
		c0,0,133.9,144,375.5,7.4C1178.8,658.6,1118.8,645.9,1079.6,644.1z"/>
	<path class="st1" d="M949.4,1454.8c-165.4,0-285.7-48.2-286.9-48.7c-1.2-0.5-2.1-1.5-2.4-2.8L556.6,948.2c-0.2-0.9-0.1-1.8,0.3-2.6
		c4-8.4,99.6-206.9,155.4-248.4c65-48.2,177.8-52.9,214.9-54.4c3.7-0.2,6.6-0.3,8.6-0.4c2.3-0.2,4.1,1.5,4.3,3.7
		c0.2,2.2-1.5,4.1-3.7,4.3c-2,0.1-5,0.3-8.8,0.4c-36.5,1.5-147.5,6.1-210.5,52.9c-52,38.6-144,226.9-152.3,244.1l102.7,451.7
		c16,6.1,129.6,47.4,282,47.4c0.3,0,0.5,0,0.8,0c228.1-0.2,340.8-22.8,361.4-27.5c-6.5-43.8-22.9-143-23-144
		c-0.2-1.3,0.2-2.7,1.2-3.6c1-0.9,2.4-1.3,3.7-1c65.1,15.5,118.7,19.5,184.9-8.5c17.8-7.5,29.6-18.7,35.8-34.1
		c20.8-51.3-20.2-148.1-76.9-282.1c-18-42.5-38.4-90.7-58.8-142.2c-37.7-95-138.3-147.4-299.1-155.7c-2.2-0.1-3.9-2-3.8-4.2
		c0.1-2.2,2-3.9,4.2-3.8c164.2,8.5,267.2,62.6,306.1,160.8c20.4,51.4,40.8,99.6,58.8,142c59.6,140.8,99.1,233.9,77,288.3
		c-7.1,17.5-20.2,30.1-40.1,38.5c-66.2,27.9-120,24.9-184,10.2c3.8,22.9,17.3,105.9,22.6,141.9c0.3,2-1,4-3,4.5
		c-1.1,0.3-112.9,28.3-366.9,28.5C950,1454.8,949.7,1454.8,949.4,1454.8z"/>
	<path class="st3" d="M672.7,606.9c-123.9,13.4-275.1,3.5-275.1,3.5s-32.6,435.3-36.5,575.9c-0.8,26.9,5.2,54.4,16.5,80.9
		c43.3,101.9,158.5,150.4,257.2,108.4c87.8-37.3,126.1-132.4,111.4-226.3C725.4,1016.3,672.7,606.9,672.7,606.9z"/>
	<path class="st2" d="M561,1394.7c-78.3,0-153.7-47.5-187.1-125.9c-11.9-28-17.6-55.8-16.8-82.6c3.9-139.1,32.5-573.4,32.8-577.8
		c0.1-1.1,0.6-2.1,1.4-2.8c0.8-0.7,1.9-1,3-0.9c1.7,0.2,167.4,17.7,277.7-1.8c1.1-0.2,2.2,0.1,3.1,0.7c0.9,0.6,1.5,1.6,1.6,2.7
		c0.5,4.1,53,410.9,73.5,542.4c15.9,102.2-29.8,194.8-113.8,230.6C611.8,1389.8,586.2,1394.7,561,1394.7z M397.6,613.2
		c-3,45-28.8,441.7-32.5,573.3c-0.7,25.6,4.7,52.3,16.2,79.2c42.4,99.7,155.4,147.4,251.9,106.3c80.6-34.3,124.4-123.5,109-222
		c-19.4-124.5-67.4-495-73-538.4C567.8,628.4,423.8,615.7,397.6,613.2z"/>
	<g class="st4">
		<path class="st5" d="M823.3,656.9l3.4-0.7C825.6,656.5,824.4,656.7,823.3,656.9L823.3,656.9z"/>
	</g>
	<path class="st1" d="M1007.2,728.6c-116.3,0-182.3-68.7-183.3-69.7c-1.5-1.6-1.4-4.2,0.2-5.7c1.6-1.5,4.2-1.4,5.7,0.2
		c1.4,1.5,139.9,145,370.5,7.7c1.9-1.1,4.4-0.5,5.5,1.4c1.1,1.9,0.5,4.4-1.4,5.5C1128.5,713.3,1062.2,728.6,1007.2,728.6z"/>
	<path class="st1" d="M1266.1,1089.1c-2,0-3.7-1.4-4-3.4l-36.5-251.8c-0.3-2.2,1.2-4.2,3.4-4.5c2.2-0.3,4.2,1.2,4.5,3.4l36.5,251.8
		c0.3,2.2-1.2,4.2-3.4,4.5C1266.5,1089.1,1266.3,1089.1,1266.1,1089.1z"/>
	<path class="st1" d="M945.7,504.4c-2.2,0-4-1.8-4-4l0.1-33.7c-1.2-12.9-11.9-23.3-24.9-23.9c-1.6-0.1-3.2,0-4.5,0.2
		c-11.5,1.9-16.1,12.5-16.3,12.9c-0.9,2-3.2,3-5.3,2.1c-2-0.9-3-3.2-2.2-5.2c0.3-0.6,6.4-15,22.4-17.7c1.9-0.3,4-0.4,6.2-0.4
		c17,0.7,31,14.3,32.6,31.5l-0.1,34C949.7,502.6,947.9,504.4,945.7,504.4z"/>
	<path class="st0" d="M876.7,432.7l-134.9-27.4c-12.7-8.9-23.4-22.6-43.8-22.6l-258.8-48.8c-3.3-0.6-6.9-3.1-10.1-4.2
		c-3.7-1.3-7.6-2.4-11.4-3.3c-7.6-1.7-15.3-2.4-23-2.4c-22.2,0.2-43.7,8.6-61.3,21.9c-18.1,13.8-32.1,32.6-41.6,53.2
		c-10.7,23.1-15.9,48.5-16,73.9c0,0.3,0,0.5,0,0.8c0,78.8,48.9,143.4,111.1,149.3v0.4l1.6-0.3c2.6,0.2,5.2,0.3,7.8,0.3
		c16.4,0,32-4.1,46.3-11.5l255.6-52.7c19.5-6,34.6-11.1,47.2-30.9l132.9-22.5c17.7,0,27-14.4,27-38.3
		C905.2,443.6,894.5,432.7,876.7,432.7z"/>
	<path class="st1" d="M745.3,532.4c-1.9,0-3.6-1.4-3.9-3.3c-0.4-2.2,1.1-4.3,3.3-4.6l132.9-22.5c6.8-2.1,23.7-9.7,23.7-32.5
		c0-16.2-9-28.4-24.1-32.6l-139.3-28.3c-2.2-0.4-3.6-2.6-3.1-4.7c0.4-2.2,2.6-3.6,4.7-3.1L879,429.1c19,5.3,30.2,20.3,30.2,40.4
		c0,19.6-11.2,34.6-29.9,40.3L746,532.3C745.7,532.4,745.5,532.4,745.3,532.4z"/>
	<path class="st1" d="M502.3,347.6c-0.3,0-0.5,0-0.8-0.1l-79-15.8c-2.2-0.4-3.6-2.5-3.1-4.7c0.4-2.2,2.5-3.6,4.7-3.1l79,15.8
		c2.2,0.4,3.6,2.5,3.1,4.7C505.9,346.2,504.2,347.6,502.3,347.6z"/>
	<path class="st1" d="M412.7,626.1c-1.8,0-3.5-1.3-3.9-3.2c-0.5-2.2,0.9-4.3,3.1-4.8l285.4-62.8c39-10.9,62.3-42.5,62.3-84.4
		c0-49.8-31.3-78.2-62.3-84.4l-8-1.6c-2.2-0.4-3.6-2.5-3.1-4.7c0.4-2.2,2.6-3.6,4.7-3.1l8,1.6c41.1,8.1,68.7,45.2,68.7,92.3
		c0,45.7-25.6,80.2-68.4,92.2L413.6,626C413.3,626.1,413,626.1,412.7,626.1z"/>
	<path class="st1" d="M396.2,627.5c-68.6,0-124.4-69-124.4-153.8c0-84.8,55.8-153.8,124.4-153.8c68.6,0,124.4,69,124.4,153.8
		C520.6,558.5,464.8,627.5,396.2,627.5z M396.2,328c-64.2,0-116.4,65.4-116.4,145.8c0,80.4,52.2,145.8,116.4,145.8
		c64.2,0,116.4-65.4,116.4-145.8C512.6,393.3,460.4,328,396.2,328z"/>
	<ellipse class="st2" cx="396.2" cy="473.7" rx="97.1" ry="120.8"/>
	<path class="st1" d="M962.1,606.1c-13.7,0-26.9-2-27.8-2.1c-2.2-0.3-3.7-2.4-3.3-4.6c0.3-2.2,2.4-3.7,4.6-3.3
		c0.3,0,29.7,4.5,44.7,0.1c2.2-0.6,4.4,0.6,5,2.7c0.6,2.1-0.6,4.4-2.7,5C976.8,605.6,969.4,606.1,962.1,606.1z"/>
	<g class="st4">
		<defs>
			<ellipse id="SVGID_3_" cx="386.9" cy="473.7" rx="89.5" ry="120.8"/>
		</defs>
		<clipPath id="SVGID_4_">
			<use xlink:href="#SVGID_3_"  style="overflow:visible;"/>
		</clipPath>
	</g>
	<path class="st0" d="M1068.2,454.7c-4.5,1.6-8.9,4.1-12.9,7.4c-15.7,13.4-18.7,35.6-6.7,49.7c12,14.1,34.5,14.7,50.2,1.4
		c15.7-13.4,18.7-35.6,6.7-49.7C1096.5,453,1081.7,450,1068.2,454.7L1068.2,454.7z"/>
	<path class="st1" d="M1077.2,506.8c-0.4,0-0.9-0.1-1.3-0.2l-15-5.2c-1.2-0.4-2.1-1.4-2.5-2.6c-0.4-1.2-0.2-2.5,0.5-3.5l18-25.5
		c1.3-1.8,3.8-2.2,5.6-1c1.8,1.3,2.2,3.8,1,5.6l-15,21.2l10,3.5c2.1,0.7,3.2,3,2.5,5.1C1080.4,505.8,1078.8,506.8,1077.2,506.8z"/>
	<path class="st1" d="M957.3,531.9c-5.4,0-10.8-2.6-13.8-4.9c-1.8-1.3-2.1-3.8-0.8-5.6c1.3-1.8,3.8-2.1,5.6-0.8
		c0.4,0.3,9.5,6.8,14.2,0.8c6-7.7,3.8-19.1,3.8-19.2c-0.4-2.2,1-4.3,3.1-4.7c2.1-0.4,4.3,0.9,4.7,3.1c0.1,0.6,3,15.1-5.3,25.7
		C965.5,530.4,961.3,531.9,957.3,531.9z"/>
	<g class="st4">
		<path class="st6" d="M626.9,404.3c-10,0-15.6-4.3-18.5-8.9c-4.3,3.6-11.3,7.7-20.7,6.4c-18.2-2.4-27-14.4-31.1-24.2
			c-4.4,3.2-11.6,4.5-21.5,4.2c-20.4-0.7-31.4-24.2-35.9-37.2c-1.7-0.6-2.8-2.3-2.6-4.1c0.1-0.7,0.3-1.3,0.7-1.9
			c-0.4-1.3-0.6-2.1-0.6-2.3c-0.5-2.2,0.8-4.3,3-4.8c2.2-0.5,4.3,0.8,4.8,3c0,0.1,0.4,1.8,1.2,4.4c0.4,0.6,0.6,1.2,0.6,1.9
			c3.7,11,12.9,32.5,28.9,33c13.5,0.4,17-2.6,17.9-4c0.3-0.4,0.4-0.8,0.5-1.2c-0.6-2.4-0.7-4-0.7-4.1c-0.2-1.9,1-3.7,2.9-4.2
			c1.9-0.5,3.8,0.4,4.7,2.1c0.6,1.3,1.2,3.4,1.2,5.8c1.9,7.7,8,23.1,27,25.7c10.8,1.5,17.5-7.8,17.8-8.1c1-1.4,2.7-2,4.3-1.6
			c1.6,0.4,2.8,1.8,3,3.5c0.1,1,1.8,9.8,15.8,8.5c10.3-0.9,14.4-5.5,15.2-16.9c0.1-1.7,1.4-3.2,3.1-3.6c1.7-0.4,3.5,0.3,4.4,1.8
			c5.1,8.5,15.5,14,20.8,12.8c4.8-1.1,8.1-3.7,9.9-7.9c2.6-6.1,1.4-14.6-3.1-22c-8.1-13.3-17-15.9-32.7-16.5c-1.1,0-2.1-0.5-2.8-1.3
			c-0.1-0.1-14.3-14.5-51-10.4c-0.8,0.1-1.6-0.1-2.3-0.4c-0.2-0.1-23.5-12-44.9-6.1c-0.5,0.1-0.9,0.2-1.4,0.1
			c-0.3,0-30.6-2.8-40.4-2c-15.5,1.3-37.8,15.2-38,15.3c-1.9,1.2-4.4,0.6-5.5-1.3c-1.2-1.9-0.6-4.4,1.3-5.5
			c1-0.6,24.1-15.1,41.6-16.5c9.7-0.8,36.2,1.5,41,1.9c21.7-5.7,43.7,3.8,48.9,6.3c34.3-3.5,50.8,7.9,55.3,11.8
			c16.6,0.8,28.2,4.6,37.7,20.3c5.9,9.6,7.3,20.8,3.7,29.3c-2.8,6.5-8.3,11-15.5,12.6c-6.9,1.6-16.5-2.5-23.6-9.3
			c-3,9.3-9.8,14.3-20.9,15.3C629.2,404.3,628,404.3,626.9,404.3z"/>
	</g>
	<path class="st1" d="M556.9,368.3c-1.8,0-3.4-1.2-3.9-3c-0.1-0.2-5.8-23-15.8-39.2c-1.2-1.9-0.6-4.4,1.3-5.5
		c1.9-1.2,4.4-0.6,5.5,1.3c10.6,17.2,16.5,40.5,16.7,41.4c0.5,2.1-0.8,4.3-2.9,4.9C557.5,368.2,557.2,368.3,556.9,368.3z"/>
	<path class="st1" d="M609.8,392.1c-1.9,0-3.5-1.3-3.9-3.2c-0.1-0.4-8.5-41.6-16.6-58.8c-1-2-0.1-4.4,1.9-5.3c2-0.9,4.4-0.1,5.3,1.9
		c8.6,18.1,16.9,58.9,17.3,60.6c0.4,2.2-1,4.3-3.1,4.7C610.4,392,610.1,392.1,609.8,392.1z"/>
	<path class="st1" d="M992.8,478.9c-1,0-2-0.4-2.8-1.1c-1.6-1.5-1.6-4.1-0.1-5.7c0.4-0.4,9.4-9.7,22.1-9.4c2.2,0.1,4,1.9,3.9,4.1
		c0,2.2-1.8,3.9-4,3.9c-0.1,0-0.3,0-0.5,0c-8.8,0-15.7,6.9-15.8,6.9C994.9,478.5,993.8,478.9,992.8,478.9z"/>
	<path class="st1" d="M648.9,383.6c-0.2,0-0.4,0-0.6,0c-2.2-0.3-3.7-2.4-3.4-4.5c0-0.2,3.4-24-1.4-37.7c-0.7-2.1,0.4-4.4,2.5-5.1
		c2.1-0.7,4.4,0.4,5.1,2.5c5.4,15.5,1.9,40.4,1.8,41.5C652.5,382.1,650.8,383.6,648.9,383.6z"/>
	<path class="st1" d="M1079.6,662.3c-2.2,0-4-1.7-4-3.9l-2.5-123.8c0-2.2,1.7-4,3.9-4.1c2.3,0,4.1,1.7,4.1,3.9l2.5,123.8
		C1083.7,660.4,1081.9,662.2,1079.6,662.3C1079.7,662.3,1079.6,662.3,1079.6,662.3z"/>
	<path class="st1" d="M937.1,666.3c-2.2,0-3.9-1.7-4-3.9l-2.1-61.2c-0.1-2.2,1.7-4.1,3.9-4.2c2.1-0.1,4.1,1.7,4.1,3.9l2.1,61.2
		c0.1,2.2-1.7,4.1-3.9,4.2C937.2,666.3,937.2,666.3,937.1,666.3z"/>
	<path class="st1" d="M708.5,1040.6c-1.7,0-3.4-1.1-3.9-2.9c-36.7-128.5,46.2-249.9,47-251.1c1.3-1.8,3.8-2.3,5.6-1
		c1.8,1.3,2.3,3.8,1,5.6c-0.8,1.2-81.5,119.5-45.9,244.4c0.6,2.1-0.6,4.4-2.8,5C709.2,1040.5,708.9,1040.6,708.5,1040.6z"/>
	<g class="st4">
		<defs>
			<ellipse id="SVGID_5_" cx="396.2" cy="473.7" rx="97.1" ry="120.8"/>
		</defs>
		<clipPath id="SVGID_6_">
			<use xlink:href="#SVGID_5_"  style="overflow:visible;"/>
		</clipPath>
		<path class="st7" d="M207.8,587.1c-1.1,0-2.2-0.4-3-1.3c-1.5-1.6-1.4-4.2,0.2-5.7l124.4-114.7c1.5-1.4,3.9-1.4,5.4,0l29.7,27.4
			l56.3-51.9c1.5-1.4,3.9-1.4,5.4,0l27.1,25l128.5-118.5c1.6-1.5,4.2-1.4,5.7,0.2c1.5,1.6,1.4,4.2-0.2,5.7l-131.2,121
			c-1.5,1.4-3.9,1.4-5.4,0l-27.1-25l-56.3,51.9c-1.5,1.4-3.9,1.4-5.4,0l-29.7-27.4L210.6,586C209.8,586.7,208.8,587.1,207.8,587.1z"
			/>
	</g>
	<g class="st4">
		<g>
			<defs>
				
					<ellipse id="SVGID_7_" transform="matrix(0.7071 -0.7071 0.7071 0.7071 -535.0201 801.1886)" cx="699.6" cy="1046.4" rx="231.2" ry="231.2"/>
			</defs>
			<use xlink:href="#SVGID_7_"  style="overflow:visible;fill:#2F2F41;"/>
			<clipPath id="SVGID_8_">
				<use xlink:href="#SVGID_7_"  style="overflow:visible;"/>
			</clipPath>
			<path class="st8" d="M544,1101.2c-129.7,0-235.2-105.5-235.2-235.2c0-129.7,105.5-235.2,235.2-235.2s235.2,105.5,235.2,235.2
				C779.3,995.7,673.7,1101.2,544,1101.2z M544,638.7c-125.3,0-227.2,101.9-227.2,227.2c0,125.3,101.9,227.2,227.2,227.2
				s227.2-101.9,227.2-227.2C771.2,740.7,669.3,638.7,544,638.7z"/>
		</g>
	</g>
	<path class="st1" d="M921,479.1c3.3,0,6-2.7,6-6v-4.7c0-3.3-2.7-6-6-6c-3.3,0-6,2.7-6,6v4.7C915,476.4,917.7,479.1,921,479.1z"/>
</g>
</svg>
